<?xml version="1.0" encoding="UTF-8"?>
<svg id="Capa_1" data-name="Capa 1" xmlns="http://www.w3.org/2000/svg" viewBox="0 0 50 50">
  <defs>
    <style>
      .cls-1 {
        fill: none;
        stroke: #fff;
        stroke-linecap: round;
        stroke-linejoin: round;
        stroke-width: 4.09px;
      }
    </style>
  </defs>
  <path class="cls-1" d="M22.4,8.38l-14.24,24.04c-.78,1.31-1.26,2.81-1.34,4.44-.29,5.36,3.82,9.94,9.19,10.23,3.74.2,7.1-1.74,8.89-4.75l17.33-29.09c.55-.92.89-1.98.95-3.13.2-3.78-2.7-7.01-6.48-7.22-2.64-.14-5.01,1.23-6.27,3.35l-13.18,22.24c-.37.62-.6,1.34-.64,2.11-.14,2.55,1.82,4.74,4.38,4.87,1.78.1,3.38-.83,4.23-2.26,0,0,.28-.51.68-1.65.25-.71,4.37-14.83,4.37-14.83"/>
</svg>