<?xml version="1.0" encoding="UTF-8"?>
<svg id="Capa_1" data-name="Capa 1" xmlns="http://www.w3.org/2000/svg" viewBox="0 0 50 50">
  <defs>
    <style>
      .cls-1 {
        fill: #fff;
      }
    </style>
  </defs>
  <path class="cls-1" d="M46.3,22.14l-8.17-14.16c-1.02-1.77-2.91-2.86-4.95-2.86h-16.35c-2.04,0-3.93,1.09-4.95,2.86L3.7,22.14c-1.02,1.77-1.02,3.95,0,5.72l8.17,14.16c1.02,1.77,2.91,2.86,4.95,2.86h16.35c2.04,0,3.93-1.09,4.95-2.86l8.17-14.16c1.02-1.77,1.02-3.95,0-5.72ZM25,32.57c-4.18,0-7.57-3.39-7.57-7.57s3.39-7.57,7.57-7.57,7.57,3.39,7.57,7.57-3.39,7.57-7.57,7.57Z"/>
</svg>