<?xml version="1.0" encoding="UTF-8"?>
<svg id="Capa_1" data-name="Capa 1" xmlns="http://www.w3.org/2000/svg" viewBox="0 0 50 50">
  <defs>
    <style>
      .cls-1 {
        fill: #fff;
      }
    </style>
  </defs>
  <path class="cls-1" d="M30.38,13.46c-2.92.44-5.61,1.61-7.83,3.36h-2.55l-2.03-6.2c-.26-.83-1.44-.83-1.7,0l-2.01,6.2h-6.52c-.87,0-1.24,1.11-.55,1.61l5.28,3.84-2.01,6.2c-.26.83.68,1.53,1.37,1l4.67-3.36c-.33,1.31-.5,2.66-.5,4.06,0,1.51.2,2.97.57,4.36-7.9-.28-14.18-6.74-14.18-14.71s6.59-14.73,14.73-14.73c5.85,0,10.91,3.4,13.27,8.36Z"/>
  <path class="cls-1" d="M32.89,15.44c-.57,0-1.13.02-1.68.11-1.61.17-3.14.61-4.56,1.29-3.99,1.88-7,5.5-8.05,9.88-.28,1.09-.41,2.27-.41,3.45,0,1.48.22,2.92.63,4.28,1.83,6.04,7.44,10.45,14.07,10.45,8.14,0,14.73-6.59,14.73-14.73s-6.59-14.73-14.73-14.73ZM42.42,31.17l-4.47,1.09c-1.46.35-2.62,1.51-2.97,2.97l-1.09,4.45c-.26,1.05-1.72,1.05-1.99,0l-1.09-4.45c-.37-1.46-1.51-2.62-2.97-2.97l-2.14-.52-2.33-.57c-.74-.2-.96-1.03-.59-1.55.11-.2.33-.37.59-.44l.37-.09,4.1-1c1.09-.28,2.01-.98,2.55-1.94.11-.17.2-.37.28-.59.04-.13.09-.28.13-.44l.96-3.91v-.07l.13-.5c.26-1.03,1.72-1.03,1.99,0l1.09,4.47c.35,1.46,1.51,2.6,2.97,2.97l4.47,1.09c1.03.26,1.03,1.72,0,1.99Z"/>
</svg>