<?xml version="1.0" encoding="UTF-8"?>
<svg id="Capa_1" data-name="Capa 1" xmlns="http://www.w3.org/2000/svg" viewBox="0 0 50 50">
  <defs>
    <style>
      .cls-1 {
        fill: #fff;
      }
    </style>
  </defs>
  <path class="cls-1" d="M40.84,14.92c.52.52.52,1.35,0,1.87l-28.32,28.32c-.71.71-1.6,1.22-2.57,1.44l-6.91,2.26c-1.16.38-2.26-.72-1.89-1.89l2.26-6.9c.23-.98.72-1.87,1.44-2.58l28.32-28.32c.52-.52,1.35-.52,1.87,0l5.8,5.8Z"/>
  <path class="cls-1" d="M47.33,10.3l-2.26,2.26c-.52.52-1.35.52-1.87,0l-5.8-5.8c-.52-.52-.52-1.35,0-1.87l2.08-2.08c2.2-2.2,5.91-2.31,8.02-.03.96,1.04,1.43,2.36,1.43,3.67,0,1.39-.53,2.78-1.59,3.84Z"/>
</svg>