<?xml version="1.0" encoding="UTF-8"?>
<svg id="Capa_1" data-name="Capa 1" xmlns="http://www.w3.org/2000/svg" viewBox="0 0 481.14 110.9">
  <polygon points="458.96 22.18 458.96 0 436.78 0 414.6 0 414.6 22.18 392.42 22.18 392.42 44.36 392.42 66.54 392.42 88.72 392.42 110.9 414.6 110.9 414.6 88.72 436.78 88.72 458.96 88.72 458.96 66.54 481.14 66.54 481.14 44.36 481.14 22.18 458.96 22.18"/>
  <polygon points="66.54 0 44.36 0 22.18 0 22.18 22.18 0 22.18 0 44.36 0 66.54 22.18 66.54 22.18 88.72 44.36 88.72 66.54 88.72 66.54 110.9 88.72 110.9 88.72 88.72 88.72 66.54 88.72 44.36 88.72 22.18 66.54 22.18 66.54 0"/>
</svg>