<?xml version="1.0" encoding="UTF-8"?>
<svg id="Capa_1" data-name="Capa 1" xmlns="http://www.w3.org/2000/svg" viewBox="0 0 133.09 217.11">
  <defs>
    <style>
      .cls-1 {
        fill: #c29343;
      }
    </style>
  </defs>
  <polygon class="cls-1" points="110.9 44.36 110.9 22.18 110.9 0 88.72 0 88.72 22.18 88.72 44.36 66.54 44.36 66.54 66.54 88.72 66.54 88.72 88.72 88.72 110.9 110.9 110.9 110.9 88.72 110.9 66.54 133.09 66.54 133.09 44.36 110.9 44.36"/>
  <polygon class="cls-1" points="66.54 106.2 44.36 106.2 44.36 84.02 22.18 84.02 22.18 106.2 0 106.2 0 128.38 22.18 128.38 22.18 150.56 44.36 150.56 44.36 128.38 66.54 128.38 66.54 106.2"/>
  <rect class="cls-1" x="88.72" y="150.56" width="22.18" height="22.18"/>
  <rect class="cls-1" x="110.9" y="172.75" width="22.18" height="22.18"/>
  <rect class="cls-1" x="88.72" y="194.93" width="22.18" height="22.18"/>
  <rect class="cls-1" x="66.54" y="172.75" width="22.18" height="22.18"/>
</svg>