<?xml version="1.0" encoding="UTF-8"?>
<svg id="Capa_1" data-name="Capa 1" xmlns="http://www.w3.org/2000/svg" viewBox="0 0 50 50">
  <defs>
    <style>
      .cls-1 {
        fill: #fff;
      }
    </style>
  </defs>
  <rect class="cls-1" x="22.73" y="1.56" width="4.54" height="16.01" rx="2.27" ry="2.27"/>
  <rect class="cls-1" x="25.65" y="9.86" width="16.01" height="4.54" rx="2.27" ry="2.27" transform="translate(5.14 33.73) rotate(-56.96)"/>
  <rect class="cls-1" x="31.41" y="16.49" width="16.01" height="4.54" rx="2.27" ry="2.27" transform="translate(-4.23 18.39) rotate(-24.96)"/>
  <rect class="cls-1" x="38.45" y="19.8" width="4.54" height="16.01" rx="2.27" ry="2.27" transform="translate(7.25 64.01) rotate(-81.57)"/>
  <rect class="cls-1" x="34.72" y="27.88" width="4.54" height="16.01" rx="2.27" ry="2.27" transform="translate(-14.36 40.24) rotate(-48.98)"/>
  <rect class="cls-1" x="27.32" y="32.67" width="4.54" height="16.01" rx="2.27" ry="2.27" transform="translate(-10.47 10.26) rotate(-16.76)"/>
  <rect class="cls-1" x="12.4" y="38.41" width="16.01" height="4.54" rx="2.27" ry="2.27" transform="translate(-24.42 48.49) rotate(-73.24)"/>
  <rect class="cls-1" x="5" y="33.61" width="16.01" height="4.54" rx="2.27" ry="2.27" transform="translate(-20.36 17.35) rotate(-41.02)"/>
  <rect class="cls-1" x="1.27" y="25.54" width="16.01" height="4.54" rx="2.27" ry="2.27" transform="translate(-3.97 1.66) rotate(-8.43)"/>
  <rect class="cls-1" x="8.31" y="10.75" width="4.54" height="16.01" rx="2.27" ry="2.27" transform="translate(-10.89 20.44) rotate(-65.04)"/>
  <rect class="cls-1" x="14.08" y="4.12" width="4.54" height="16.01" rx="2.27" ry="2.27" transform="translate(-3.97 10.87) rotate(-33.04)"/>
  <rect class="cls-1" x="22.73" y="1.56" width="4.54" height="16.01" rx="2.27" ry="2.27"/>
</svg>