<?xml version="1.0" encoding="UTF-8"?>
<svg id="Capa_1" data-name="Capa 1" xmlns="http://www.w3.org/2000/svg" viewBox="0 0 50 50">
  <defs>
    <style>
      .cls-1 {
        fill: #fff;
      }
    </style>
  </defs>
  <path class="cls-1" d="M5.97,39.9c-2.16,0-3.91,1.75-3.91,3.91s1.75,3.91,3.91,3.91,3.91-1.75,3.91-3.91-1.75-3.91-3.91-3.91Z"/>
  <path class="cls-1" d="M45.55,17.6c.11-.61.18-1.23.18-1.87,0-5.59-4.53-10.12-10.12-10.12-1.18,0-2.31.21-3.36.58-2.68-2.43-6.22-3.93-10.13-3.93-7.6,0-13.87,5.62-14.92,12.93C3.18,17.06.38,21.13.38,25.86c0,6.49,5.26,11.74,11.74,11.74.17,0,.33-.02.49-.02,1.44,4.85,5.93,8.39,11.25,8.39,3.13,0,5.97-1.23,8.07-3.23.85.15,1.71.24,2.6.24,8.33,0,15.09-6.75,15.09-15.09,0-3.98-1.55-7.59-4.07-10.29ZM24.65,37.17c-1.69,0-3-1.16-3-3s1.31-3,3-3,3,1.2,3,3-1.34,3-3,3ZM30.55,23.69c-1.93,1.06-2.98,1.77-3.41,3.09-.34,1.06-1.26,1.82-2.37,1.82h0c-1.38,0-2.51-1.13-2.46-2.51.05-1.56.38-2.69,1.99-3.95,1.87-1.45,3.84-1.94,3.84-3.95,0-1.16-.88-2.29-2.79-2.29-1.72,0-2.82.71-3.27,2.04-.32.95-1.28,1.52-2.28,1.52h-1c-1.75,0-2.97-1.78-2.29-3.39,1.25-2.96,4.3-5.01,9.19-5.01s8.44,2.76,8.43,6.87c0,2.42-1.47,4.6-3.59,5.76Z"/>
</svg>