<?xml version="1.0" encoding="UTF-8"?>
<svg id="Capa_1" data-name="Capa 1" xmlns="http://www.w3.org/2000/svg" viewBox="0 0 50 50">
  <defs>
    <style>
      .cls-1 {
        fill: #fff;
      }
    </style>
  </defs>
  <path class="cls-1" d="M25,1.54C12.05,1.54,1.54,12.05,1.54,25s10.5,23.46,23.46,23.46,23.46-10.5,23.46-23.46S37.95,1.54,25,1.54ZM22.07,14.45c0-1.63,1.32-2.95,2.95-2.95s2.95,1.32,2.95,2.95c0,3-.22,6-.67,8.98l-.65,4.38c-.12.81-.82,1.42-1.64,1.42s-1.53-.61-1.65-1.42l-.65-4.47c-.42-2.9-.63-5.83-.63-8.76v-.11ZM24.98,38.5c-1.86,0-3.21-1.31-3.21-3.13s1.34-3.13,3.21-3.13,3.24,1.31,3.24,3.13-1.34,3.13-3.24,3.13Z"/>
</svg>